<svg xmlns="http://www.w3.org/2000/svg" version="1.0" viewBox="0 0 484 168"><g fill="#FFF" stroke="#FFF" stroke-width=".1">
<path d="M49 51.7c0 19.2-.1 44.2-.1 55.8-.1 11.6-.1 26.1 0 32.2L49 151h386.6l.2-67 .2-67H49v34.7zm89.2-4.8c5.4 1.7 11.8 6.9 14.2 11.6 1.3 2.5 2.2 6.5 2.4 10.8.6 9.2-2.8 16.2-9.9 20.8-2.7 1.8-4.9 3.3-4.9 3.5 0 .1 3.6 7.7 8 16.8l7.9 16.7-9.1-.3-9.2-.3-7.3-15.5-7.3-15.5-5.5-.3-5.5-.3V127H96V44.8l19.3.5c10.5.2 20.9 1 22.9 1.6zm53.6 7.8c.6 1 4.7 12.6 9.2 25.8 4.6 13.2 8.6 24.3 8.9 24.7.3.4 4.6-10.9 9.5-25 5-14.1 9.5-26 10-26.4 1.4-1 11.4-1 12 0 .3.6-12.1 35.7-22 62l-1.6 4.2h-15.4l-12-32.8c-6.6-18-11.9-33-11.7-33.5.2-.4 3.1-.7 6.3-.7 4.6 0 6.1.4 6.8 1.7zm88.5 4.3c2.4 3.3 9.3 13.4 15.3 22.5 6 9 11.2 16.5 11.7 16.5.4 0 .7-10.1.7-22.5V52.9l5.8.3 5.7.3.3 33.2.2 33.3h-12.5l-15.2-22.7L277 74.6V120h-13V87.2c0-18.1.3-33.2.7-33.5.3-.4 3-.7 6-.7h5.3l4.3 6zm79.7 7.4.5 12.9 10.4-11.4C385.4 52.1 384.1 53 392.2 53c3.9 0 6.8.4 6.6.9-.1.5-5.4 6.5-11.6 13.2-7.1 7.6-11.2 12.8-10.9 13.8.2.9 5.7 9.9 12.1 20.1l11.7 18.5-7.2.3c-5 .2-7.6-.1-8.4-1-.7-.7-4.9-7.4-9.5-14.8-4.5-7.4-8.4-13.7-8.7-13.9-.2-.3-1.7 1.1-3.3 3-2.9 3.3-2.9 3.6-3 15.1V120h-13V87.2c0-18.1.3-33.2.7-33.6.4-.4 3.2-.6 6.3-.4l5.5.3.5 12.9z"/><path d="M112 71v13l7.8-.1c13.8-.1 18.7-3.6 18.7-13.4 0-9.2-5.1-12.5-19.2-12.5H112v13z"/></g><path fill="#FCC" stroke="#FCC" stroke-width=".1" d="M104.3 45.7c4.8.2 12.6.2 17.5 0 4.8-.1.8-.3-8.8-.3-9.6 0-13.6.2-8.7.3zm74.3 8.1c-.2.4 0 1.4.6 2.2.8 1.2.9 1.1.4-.3-.6-1.7 0-1.8 5.8-1.5 3.5.1 6.2 0 5.9-.5-.6-1-12-.9-12.7.1zm85.9.5c-.3.7-.4 15.8-.2 33.7l.2 32.5.3-33.2.2-33.2 5.8-.4 5.7-.3-5.8-.2c-3.9-.1-5.9.2-6.2 1.1zm83-.1c-.3.7-.4 15.9-.2 33.8l.2 32.5.3-33.3.2-33.2h11v13c0 7.1.4 13 .8 13s2.6-1.9 4.7-4.3l4-4.2-4.2 3.9-4.2 3.9-.3-12.9-.3-12.9-5.8-.3c-4-.2-5.9.1-6.2 1zm43.9-.5 6.9.4-2.9 3.2-2.9 3.2 3.3-2.9c1.7-1.7 3.2-3.3 3.2-3.8 0-.4-3.3-.7-7.2-.6l-7.3.2 6.9.3zM111.4 71c0 7.4.1 10.5.3 6.7.2-3.7.2-9.7 0-13.5-.2-3.7-.3-.6-.3 6.8zm182.7 9.6c7.2 10.8 13.3 19.3 13.7 18.9.4-.3.2-.9-.4-1.3-.6-.4-6.6-8.9-13.3-19-6.7-10-12.4-18.2-12.6-18.2-.3 0 5.4 8.8 12.6 19.6zm-17.9 16.6.3 23.3.2-23 .3-22.9 11.5 17.2c6.3 9.5 11.7 17.2 12 17.2.3 0-4.7-7.9-11.2-17.5-6.4-9.6-12-17.5-12.5-17.5-.4 0-.7 10.5-.6 23.2zm84.9-2.9c-2 2.2-2.1 3.2-1.8 14.3l.3 11.9.2-11.9c.2-10.7.4-12.2 2.4-14.3 1.2-1.3 1.9-2.3 1.6-2.3-.2 0-1.4 1.1-2.7 2.3zM111.4 111c0 9.1.2 12.8.3 8.2.2-4.5.2-11.9 0-16.5-.1-4.5-.3-.8-.3 8.3z"/><path fill="#F66" stroke="#F66" stroke-width=".1" d="M96.5 86.5c0 22.5.1 31.9.2 20.8.2-11.1.2-29.5 0-41-.1-11.4-.2-2.4-.2 20.2zM110.4 71c0 7.4.1 10.5.3 6.7.2-3.7.2-9.7 0-13.5-.2-3.7-.3-.6-.3 6.8zm0 40c0 9.1.2 12.8.3 8.2.2-4.5.2-11.9 0-16.5-.1-4.5-.3-.8-.3 8.3z"/><path fill="#F33" stroke="#F33" stroke-width=".1" d="M97 86.4V127h13V94.9l7.2.3 7.1.3 7.3 15.5 7.3 15.5 8.1.3 8.1.3-8.6-17L138 93l3.9-2c16-8.1 16.1-32.4.1-41.4l-5.5-3.1-19.7-.3-19.8-.4v40.6zm35.8-27.3c6.3 2.2 9 11.2 5.6 18.4-2.4 5.1-6.5 6.5-18.3 6.5H110V58h9.9c5.4 0 11.2.5 12.9 1.1z"/><path fill="#F99" stroke="#F99" stroke-width=".1" d="M180.4 57.7c2 5.5 21.3 58.5 22.2 60.6.5 1.5 1.7 1.7 7.7 1.5l7-.3 11.3-30.8c6.2-16.9 11.6-31.6 11.9-32.7.6-1.8.2-2-5.2-2h-5.9l-9 25.6c-8.9 25.5-9.9 28.3-10.7 27.4-.2-.3-4.4-12.2-9.4-26.5l-9-26-6.1-.3-6.1-.3 1.3 3.8zM265 87v33h11V97c0-12.7.4-23 .8-23 .5 0 7.8 10.3 16.2 23l15.3 23H320V54h-12l-.2 23.2-.3 23.3L292 77.3l-15.5-23.2-5.7-.1H265v33zm83 0v33h11V96.4l3.4-3.3c1.9-1.8 3.9-3 4.4-2.7.6.3 5 7.1 9.9 15.1l8.8 14.5h6.8c3.7 0 6.7-.2 6.7-.5s-5.4-9.1-12-19.6c-6.6-10.4-12-19.3-12-19.7 0-.4 4.3-5.5 9.6-11.2 5.4-5.8 10.6-11.5 11.7-12.8l2-2.2h-13.9l-11.8 13c-6.5 7.1-12.2 13-12.7 13s-.9-5.9-.9-13V54h-11v33z"/></svg>